<mxfile host="app.diagrams.net" agent="Mozilla/5.0 (Windows NT 10.0; Win64; x64) AppleWebKit/537.36 (KHTML, like Gecko) Chrome/139.0.0.0 Safari/537.36 Edg/139.0.0.0" version="28.1.0">
  <diagram name="Page-1" id="Hkj3TjsAmZG0iZ5bmY8q">
    <mxGraphModel dx="712" dy="371" grid="1" gridSize="10" guides="1" tooltips="1" connect="1" arrows="1" fold="1" page="1" pageScale="1" pageWidth="850" pageHeight="1100" math="0" shadow="0">
      <root>
        <mxCell id="0" />
        <mxCell id="1" parent="0" />
        <mxCell id="5FGsqwhX5kQpAKNLu387-1" value="Subscription Manager" style="swimlane;childLayout=stackLayout;resizeParent=1;resizeParentMax=0;startSize=20;html=1;movable=1;resizable=1;rotatable=1;deletable=1;editable=1;locked=0;connectable=1;" parent="1" vertex="1">
          <mxGeometry x="160" y="120" width="570" height="1370" as="geometry">
            <mxRectangle x="245.00000000000045" y="80" width="160" height="30" as="alternateBounds" />
          </mxGeometry>
        </mxCell>
        <mxCell id="5FGsqwhX5kQpAKNLu387-2" value="User" style="swimlane;startSize=20;html=1;" parent="5FGsqwhX5kQpAKNLu387-1" vertex="1">
          <mxGeometry y="20" width="570" height="1350" as="geometry">
            <mxRectangle y="20" width="40" height="460" as="alternateBounds" />
          </mxGeometry>
        </mxCell>
        <mxCell id="5FGsqwhX5kQpAKNLu387-8" style="edgeStyle=none;curved=1;rounded=0;orthogonalLoop=1;jettySize=auto;html=1;exitX=0.5;exitY=1;exitDx=0;exitDy=0;entryX=0.5;entryY=0;entryDx=0;entryDy=0;fontSize=12;startSize=8;endSize=8;movable=0;resizable=0;rotatable=0;deletable=0;editable=0;locked=1;connectable=0;" parent="5FGsqwhX5kQpAKNLu387-2" source="5FGsqwhX5kQpAKNLu387-6" target="5FGsqwhX5kQpAKNLu387-11" edge="1">
          <mxGeometry relative="1" as="geometry">
            <mxPoint x="60" y="69.99999999999994" as="targetPoint" />
          </mxGeometry>
        </mxCell>
        <mxCell id="5FGsqwhX5kQpAKNLu387-6" value="" style="ellipse;html=1;shape=startState;fillColor=#000000;strokeColor=#ff0000;movable=0;resizable=0;rotatable=0;deletable=0;editable=0;locked=1;connectable=0;" parent="5FGsqwhX5kQpAKNLu387-2" vertex="1">
          <mxGeometry x="57" y="20" width="23.5" height="23" as="geometry" />
        </mxCell>
        <mxCell id="5FGsqwhX5kQpAKNLu387-14" value="" style="edgeStyle=none;curved=1;rounded=0;orthogonalLoop=1;jettySize=auto;html=1;fontSize=12;startSize=8;endSize=8;movable=0;resizable=0;rotatable=0;deletable=0;editable=0;locked=1;connectable=0;" parent="5FGsqwhX5kQpAKNLu387-2" source="5FGsqwhX5kQpAKNLu387-11" target="5FGsqwhX5kQpAKNLu387-13" edge="1">
          <mxGeometry relative="1" as="geometry" />
        </mxCell>
        <mxCell id="5FGsqwhX5kQpAKNLu387-11" value="Create account" style="rounded=1;whiteSpace=wrap;html=1;arcSize=40;fontColor=#000000;fillColor=#ffffc0;strokeColor=#ff0000;movable=0;resizable=0;rotatable=0;deletable=0;editable=0;locked=1;connectable=0;" parent="5FGsqwhX5kQpAKNLu387-2" vertex="1">
          <mxGeometry x="21.25" y="70" width="95" height="40" as="geometry" />
        </mxCell>
        <mxCell id="5FGsqwhX5kQpAKNLu387-13" value="Enter user details" style="whiteSpace=wrap;html=1;fillColor=#ffffc0;strokeColor=#ff0000;fontColor=#000000;rounded=1;arcSize=40;movable=0;resizable=0;rotatable=0;deletable=0;editable=0;locked=1;connectable=0;" parent="5FGsqwhX5kQpAKNLu387-2" vertex="1">
          <mxGeometry x="20" y="140" width="97.5" height="40" as="geometry" />
        </mxCell>
        <mxCell id="5FGsqwhX5kQpAKNLu387-22" value="" style="line;strokeWidth=1;fillColor=none;align=left;verticalAlign=middle;spacingTop=-1;spacingLeft=3;spacingRight=3;rotatable=0;labelPosition=right;points=[];portConstraint=eastwest;strokeColor=inherit;" parent="5FGsqwhX5kQpAKNLu387-2" vertex="1">
          <mxGeometry y="256" width="290" height="8" as="geometry" />
        </mxCell>
        <mxCell id="5FGsqwhX5kQpAKNLu387-61" value="Add subscriptions" style="rounded=1;whiteSpace=wrap;html=1;arcSize=40;fontColor=#000000;fillColor=#ffffc0;strokeColor=#ff0000;movable=0;resizable=0;rotatable=0;deletable=0;editable=0;locked=1;connectable=0;" parent="5FGsqwhX5kQpAKNLu387-2" vertex="1">
          <mxGeometry x="34.999999999999545" y="420" width="80" height="40" as="geometry" />
        </mxCell>
        <mxCell id="5FGsqwhX5kQpAKNLu387-62" style="edgeStyle=none;curved=1;rounded=0;orthogonalLoop=1;jettySize=auto;html=1;fontSize=12;startSize=8;endSize=8;movable=0;resizable=0;rotatable=0;deletable=0;editable=0;locked=1;connectable=0;" parent="5FGsqwhX5kQpAKNLu387-2" source="5FGsqwhX5kQpAKNLu387-108" edge="1">
          <mxGeometry relative="1" as="geometry">
            <mxPoint x="67.99999999999955" y="410" as="sourcePoint" />
            <mxPoint x="68.99999999999955" y="350" as="targetPoint" />
          </mxGeometry>
        </mxCell>
        <mxCell id="5FGsqwhX5kQpAKNLu387-57" value="" style="ellipse;html=1;shape=startState;fillColor=#000000;strokeColor=#ff0000;movable=0;resizable=0;rotatable=0;deletable=0;editable=0;locked=1;connectable=0;" parent="5FGsqwhX5kQpAKNLu387-2" vertex="1">
          <mxGeometry x="55.36999999999999" y="264" width="26.75" height="26" as="geometry" />
        </mxCell>
        <mxCell id="5FGsqwhX5kQpAKNLu387-109" value="" style="edgeStyle=none;curved=1;rounded=0;orthogonalLoop=1;jettySize=auto;html=1;fontSize=12;startSize=8;endSize=8;movable=0;resizable=0;rotatable=0;deletable=0;editable=0;locked=1;connectable=0;" parent="5FGsqwhX5kQpAKNLu387-2" source="5FGsqwhX5kQpAKNLu387-57" target="5FGsqwhX5kQpAKNLu387-108" edge="1">
          <mxGeometry relative="1" as="geometry">
            <mxPoint x="309.00000000000045" y="430" as="sourcePoint" />
            <mxPoint x="309" y="490" as="targetPoint" />
          </mxGeometry>
        </mxCell>
        <mxCell id="5FGsqwhX5kQpAKNLu387-108" value="Login" style="rounded=1;whiteSpace=wrap;html=1;arcSize=40;fontColor=#000000;fillColor=#ffffc0;strokeColor=#ff0000;movable=0;resizable=0;rotatable=0;deletable=0;editable=0;locked=1;connectable=0;" parent="5FGsqwhX5kQpAKNLu387-2" vertex="1">
          <mxGeometry x="28.749999999999545" y="330" width="80" height="40" as="geometry" />
        </mxCell>
        <mxCell id="5FGsqwhX5kQpAKNLu387-130" style="edgeStyle=none;curved=1;rounded=0;orthogonalLoop=1;jettySize=auto;html=1;fontSize=12;startSize=8;endSize=8;movable=0;resizable=0;rotatable=0;deletable=0;editable=0;locked=1;connectable=0;" parent="5FGsqwhX5kQpAKNLu387-2" edge="1">
          <mxGeometry relative="1" as="geometry">
            <mxPoint x="116.24999999999955" y="740" as="sourcePoint" />
            <mxPoint x="116.24999999999955" y="740" as="targetPoint" />
          </mxGeometry>
        </mxCell>
        <mxCell id="ARopBcrdUj9PY51G81K_-3" value="" style="shape=line;html=1;strokeWidth=6;strokeColor=#ff0000;" vertex="1" parent="5FGsqwhX5kQpAKNLu387-2">
          <mxGeometry x="28.75" y="700" width="220" height="10" as="geometry" />
        </mxCell>
        <mxCell id="ARopBcrdUj9PY51G81K_-21" value="" style="edgeStyle=none;curved=1;rounded=0;orthogonalLoop=1;jettySize=auto;html=1;exitX=0.88;exitY=0.58;exitDx=0;exitDy=0;exitPerimeter=0;fontSize=12;startSize=8;endSize=8;movable=0;resizable=0;rotatable=0;deletable=0;editable=0;locked=1;connectable=0;" edge="1" parent="5FGsqwhX5kQpAKNLu387-2" source="ARopBcrdUj9PY51G81K_-3" target="ARopBcrdUj9PY51G81K_-20">
          <mxGeometry relative="1" as="geometry">
            <mxPoint x="347.3255813953489" y="880" as="targetPoint" />
            <mxPoint x="348.00000000000045" y="845" as="sourcePoint" />
            <Array as="points" />
          </mxGeometry>
        </mxCell>
        <mxCell id="ARopBcrdUj9PY51G81K_-81" style="edgeStyle=none;curved=1;rounded=0;orthogonalLoop=1;jettySize=auto;html=1;entryX=0.5;entryY=0;entryDx=0;entryDy=0;fontSize=12;startSize=8;endSize=8;" edge="1" parent="5FGsqwhX5kQpAKNLu387-2" source="ARopBcrdUj9PY51G81K_-20" target="ARopBcrdUj9PY51G81K_-78">
          <mxGeometry relative="1" as="geometry" />
        </mxCell>
        <mxCell id="ARopBcrdUj9PY51G81K_-20" value="Paused" style="rounded=1;whiteSpace=wrap;html=1;arcSize=40;fontColor=#000000;fillColor=#ffffc0;strokeColor=#ff0000;movable=0;resizable=0;rotatable=0;deletable=0;editable=0;locked=1;connectable=0;" vertex="1" parent="5FGsqwhX5kQpAKNLu387-2">
          <mxGeometry x="197.75" y="740" width="51" height="20" as="geometry" />
        </mxCell>
        <mxCell id="ARopBcrdUj9PY51G81K_-32" value="" style="edgeStyle=none;curved=1;rounded=0;orthogonalLoop=1;jettySize=auto;html=1;exitX=0.521;exitY=0.641;exitDx=0;exitDy=0;exitPerimeter=0;fontSize=12;startSize=8;endSize=8;movable=0;resizable=0;rotatable=0;deletable=0;editable=0;locked=1;connectable=0;" edge="1" parent="5FGsqwhX5kQpAKNLu387-2" source="ARopBcrdUj9PY51G81K_-3" target="ARopBcrdUj9PY51G81K_-31">
          <mxGeometry relative="1" as="geometry">
            <mxPoint x="271" y="880" as="targetPoint" />
            <mxPoint x="271" y="847" as="sourcePoint" />
          </mxGeometry>
        </mxCell>
        <mxCell id="ARopBcrdUj9PY51G81K_-31" value="Inactive" style="rounded=1;whiteSpace=wrap;html=1;arcSize=40;fontColor=#000000;fillColor=#ffffc0;strokeColor=#ff0000;movable=0;resizable=0;rotatable=0;deletable=0;editable=0;locked=1;connectable=0;" vertex="1" parent="5FGsqwhX5kQpAKNLu387-2">
          <mxGeometry x="115" y="740" width="59" height="20" as="geometry" />
        </mxCell>
        <mxCell id="5FGsqwhX5kQpAKNLu387-3" value="System" style="swimlane;startSize=20;html=1;movable=1;resizable=1;rotatable=1;deletable=1;editable=1;locked=0;connectable=1;" parent="5FGsqwhX5kQpAKNLu387-2" vertex="1">
          <mxGeometry x="280" width="290" height="1350" as="geometry" />
        </mxCell>
        <mxCell id="5FGsqwhX5kQpAKNLu387-19" value="" style="edgeStyle=none;curved=1;rounded=0;orthogonalLoop=1;jettySize=auto;html=1;fontSize=12;startSize=8;endSize=8;entryX=0.5;entryY=0;entryDx=0;entryDy=0;movable=0;resizable=0;rotatable=0;deletable=0;editable=0;locked=1;connectable=0;" parent="5FGsqwhX5kQpAKNLu387-3" source="5FGsqwhX5kQpAKNLu387-16" target="5FGsqwhX5kQpAKNLu387-20" edge="1">
          <mxGeometry relative="1" as="geometry">
            <mxPoint x="152.5035714285716" y="210" as="targetPoint" />
          </mxGeometry>
        </mxCell>
        <mxCell id="5FGsqwhX5kQpAKNLu387-16" value="Capture User details" style="whiteSpace=wrap;html=1;fillColor=#ffffc0;strokeColor=#ff0000;fontColor=#000000;rounded=1;arcSize=40;movable=0;resizable=0;rotatable=0;deletable=0;editable=0;locked=1;connectable=0;" parent="5FGsqwhX5kQpAKNLu387-3" vertex="1">
          <mxGeometry x="97.5" y="140" width="95" height="40" as="geometry" />
        </mxCell>
        <mxCell id="5FGsqwhX5kQpAKNLu387-20" value="" style="ellipse;html=1;shape=endState;fillColor=#000000;strokeColor=#ff0000;movable=0;resizable=0;rotatable=0;deletable=0;editable=0;locked=1;connectable=0;" parent="5FGsqwhX5kQpAKNLu387-3" vertex="1">
          <mxGeometry x="135" y="210" width="20" height="20" as="geometry" />
        </mxCell>
        <mxCell id="5FGsqwhX5kQpAKNLu387-63" value="Save login" style="rounded=1;whiteSpace=wrap;html=1;arcSize=40;fontColor=#000000;fillColor=#ffffc0;strokeColor=#ff0000;movable=0;resizable=0;rotatable=0;deletable=0;editable=0;locked=1;connectable=0;" parent="5FGsqwhX5kQpAKNLu387-3" vertex="1">
          <mxGeometry x="104.30999999999955" y="420" width="80" height="40" as="geometry" />
        </mxCell>
        <mxCell id="5FGsqwhX5kQpAKNLu387-65" value="Capture subscriptions" style="rounded=1;whiteSpace=wrap;html=1;arcSize=40;fontColor=#000000;fillColor=#ffffc0;strokeColor=#ff0000;movable=0;resizable=0;rotatable=0;deletable=0;editable=0;locked=1;connectable=0;" parent="5FGsqwhX5kQpAKNLu387-3" vertex="1">
          <mxGeometry x="104.30999999999955" y="490" width="80" height="40" as="geometry" />
        </mxCell>
        <mxCell id="5FGsqwhX5kQpAKNLu387-112" style="edgeStyle=none;curved=1;rounded=0;orthogonalLoop=1;jettySize=auto;html=1;entryX=0.5;entryY=0;entryDx=0;entryDy=0;fontSize=12;startSize=8;endSize=8;movable=0;resizable=0;rotatable=0;deletable=0;editable=0;locked=1;connectable=0;" parent="5FGsqwhX5kQpAKNLu387-3" source="5FGsqwhX5kQpAKNLu387-110" target="5FGsqwhX5kQpAKNLu387-63" edge="1">
          <mxGeometry relative="1" as="geometry" />
        </mxCell>
        <mxCell id="5FGsqwhX5kQpAKNLu387-110" value="Verify login" style="rounded=1;whiteSpace=wrap;html=1;arcSize=40;fontColor=#000000;fillColor=#ffffc0;strokeColor=#ff0000;movable=0;resizable=0;rotatable=0;deletable=0;editable=0;locked=1;connectable=0;" parent="5FGsqwhX5kQpAKNLu387-3" vertex="1">
          <mxGeometry x="104.30999999999955" y="330" width="80" height="40" as="geometry" />
        </mxCell>
        <mxCell id="5FGsqwhX5kQpAKNLu387-134" value="" style="edgeStyle=none;curved=1;rounded=0;orthogonalLoop=1;jettySize=auto;html=1;fontSize=12;startSize=8;endSize=8;movable=0;resizable=0;rotatable=0;deletable=0;editable=0;locked=1;connectable=0;" parent="5FGsqwhX5kQpAKNLu387-3" source="5FGsqwhX5kQpAKNLu387-120" target="5FGsqwhX5kQpAKNLu387-133" edge="1">
          <mxGeometry relative="1" as="geometry" />
        </mxCell>
        <mxCell id="5FGsqwhX5kQpAKNLu387-120" value="Validate Subscriptions" style="rounded=1;whiteSpace=wrap;html=1;arcSize=40;fontColor=#000000;fillColor=#ffffc0;strokeColor=#ff0000;movable=0;resizable=0;rotatable=0;deletable=0;editable=0;locked=1;connectable=0;" parent="5FGsqwhX5kQpAKNLu387-3" vertex="1">
          <mxGeometry x="104.30999999999955" y="560" width="80" height="40" as="geometry" />
        </mxCell>
        <mxCell id="5FGsqwhX5kQpAKNLu387-121" value="" style="edgeStyle=none;curved=1;rounded=0;orthogonalLoop=1;jettySize=auto;html=1;fontSize=12;startSize=8;endSize=8;movable=0;resizable=0;rotatable=0;deletable=0;editable=0;locked=1;connectable=0;" parent="5FGsqwhX5kQpAKNLu387-3" source="5FGsqwhX5kQpAKNLu387-65" target="5FGsqwhX5kQpAKNLu387-120" edge="1">
          <mxGeometry relative="1" as="geometry">
            <mxPoint x="534.0000000000005" y="670" as="sourcePoint" />
            <mxPoint x="534.0000000000005" y="760" as="targetPoint" />
          </mxGeometry>
        </mxCell>
        <mxCell id="5FGsqwhX5kQpAKNLu387-133" value="Display streaming status" style="rounded=1;whiteSpace=wrap;html=1;arcSize=40;fontColor=#000000;fillColor=#ffffc0;strokeColor=#ff0000;movable=1;resizable=1;rotatable=1;deletable=1;editable=1;locked=0;connectable=1;" parent="5FGsqwhX5kQpAKNLu387-3" vertex="1">
          <mxGeometry x="104.99999999999955" y="630" width="80" height="40" as="geometry" />
        </mxCell>
        <mxCell id="ARopBcrdUj9PY51G81K_-76" value="" style="line;strokeWidth=1;fillColor=none;align=left;verticalAlign=middle;spacingTop=-1;spacingLeft=3;spacingRight=3;rotatable=0;labelPosition=right;points=[];portConstraint=eastwest;strokeColor=inherit;" vertex="1" parent="5FGsqwhX5kQpAKNLu387-3">
          <mxGeometry y="250" width="290" height="20" as="geometry" />
        </mxCell>
        <mxCell id="ARopBcrdUj9PY51G81K_-79" value="yes" style="edgeStyle=orthogonalEdgeStyle;html=1;align=left;verticalAlign=bottom;endArrow=open;endSize=8;strokeColor=#ff0000;rounded=0;fontSize=12;curved=1;entryX=0;entryY=0.5;entryDx=0;entryDy=0;" edge="1" parent="5FGsqwhX5kQpAKNLu387-3" target="ARopBcrdUj9PY51G81K_-85">
          <mxGeometry x="-1" relative="1" as="geometry">
            <mxPoint x="79" y="850" as="targetPoint" />
            <mxPoint x="-20" y="850" as="sourcePoint" />
          </mxGeometry>
        </mxCell>
        <mxCell id="ARopBcrdUj9PY51G81K_-85" value="Display streaming status" style="rounded=1;whiteSpace=wrap;html=1;arcSize=40;fontColor=#000000;fillColor=#ffffc0;strokeColor=#ff0000;movable=1;resizable=1;rotatable=1;deletable=1;editable=1;locked=0;connectable=1;" vertex="1" parent="5FGsqwhX5kQpAKNLu387-3">
          <mxGeometry x="104.30999999999955" y="830" width="80" height="40" as="geometry" />
        </mxCell>
        <mxCell id="5FGsqwhX5kQpAKNLu387-17" value="" style="edgeStyle=none;curved=1;rounded=0;orthogonalLoop=1;jettySize=auto;html=1;fontSize=12;startSize=8;endSize=8;movable=0;resizable=0;rotatable=0;deletable=0;editable=0;locked=1;connectable=0;" parent="5FGsqwhX5kQpAKNLu387-2" source="5FGsqwhX5kQpAKNLu387-13" target="5FGsqwhX5kQpAKNLu387-16" edge="1">
          <mxGeometry relative="1" as="geometry" />
        </mxCell>
        <mxCell id="5FGsqwhX5kQpAKNLu387-113" style="edgeStyle=none;curved=1;rounded=0;orthogonalLoop=1;jettySize=auto;html=1;entryX=1;entryY=0.5;entryDx=0;entryDy=0;fontSize=12;startSize=8;endSize=8;movable=0;resizable=0;rotatable=0;deletable=0;editable=0;locked=1;connectable=0;" parent="5FGsqwhX5kQpAKNLu387-2" source="5FGsqwhX5kQpAKNLu387-63" target="5FGsqwhX5kQpAKNLu387-61" edge="1">
          <mxGeometry relative="1" as="geometry" />
        </mxCell>
        <mxCell id="5FGsqwhX5kQpAKNLu387-64" value="" style="edgeStyle=none;curved=1;rounded=0;orthogonalLoop=1;jettySize=auto;html=1;fontSize=12;startSize=8;endSize=8;exitX=0.5;exitY=1;exitDx=0;exitDy=0;entryX=0;entryY=0.5;entryDx=0;entryDy=0;movable=0;resizable=0;rotatable=0;deletable=0;editable=0;locked=1;connectable=0;" parent="5FGsqwhX5kQpAKNLu387-2" source="5FGsqwhX5kQpAKNLu387-61" target="5FGsqwhX5kQpAKNLu387-65" edge="1">
          <mxGeometry relative="1" as="geometry">
            <mxPoint x="79.99999999999943" y="480" as="sourcePoint" />
            <mxPoint x="164.4299999999995" y="480" as="targetPoint" />
            <Array as="points">
              <mxPoint x="74.99999999999955" y="490" />
              <mxPoint x="74.99999999999955" y="510" />
              <mxPoint x="79.99999999999955" y="510" />
              <mxPoint x="119.99999999999955" y="510" />
            </Array>
          </mxGeometry>
        </mxCell>
        <mxCell id="5FGsqwhX5kQpAKNLu387-111" value="" style="edgeStyle=none;curved=1;rounded=0;orthogonalLoop=1;jettySize=auto;html=1;fontSize=12;startSize=8;endSize=8;movable=0;resizable=0;rotatable=0;deletable=0;editable=0;locked=1;connectable=0;" parent="5FGsqwhX5kQpAKNLu387-2" source="5FGsqwhX5kQpAKNLu387-108" target="5FGsqwhX5kQpAKNLu387-110" edge="1">
          <mxGeometry relative="1" as="geometry" />
        </mxCell>
        <mxCell id="ARopBcrdUj9PY51G81K_-5" style="edgeStyle=none;curved=1;rounded=0;orthogonalLoop=1;jettySize=auto;html=1;exitX=0;exitY=0.5;exitDx=0;exitDy=0;fontSize=12;startSize=8;endSize=8;entryX=0.45;entryY=0.239;entryDx=0;entryDy=0;entryPerimeter=0;movable=0;resizable=0;rotatable=0;deletable=0;editable=0;locked=1;connectable=0;" edge="1" parent="5FGsqwhX5kQpAKNLu387-2" source="5FGsqwhX5kQpAKNLu387-133" target="ARopBcrdUj9PY51G81K_-3">
          <mxGeometry relative="1" as="geometry">
            <mxPoint x="120" y="700" as="targetPoint" />
            <Array as="points">
              <mxPoint x="130" y="650" />
              <mxPoint x="130" y="640" />
            </Array>
          </mxGeometry>
        </mxCell>
        <mxCell id="ARopBcrdUj9PY51G81K_-77" value="" style="edgeStyle=none;curved=1;rounded=0;orthogonalLoop=1;jettySize=auto;html=1;exitX=0.146;exitY=0.368;exitDx=0;exitDy=0;exitPerimeter=0;fontSize=12;startSize=8;endSize=8;movable=0;resizable=0;rotatable=0;deletable=0;editable=0;locked=1;connectable=0;" edge="1" parent="5FGsqwhX5kQpAKNLu387-2" source="ARopBcrdUj9PY51G81K_-3" target="ARopBcrdUj9PY51G81K_-19">
          <mxGeometry relative="1" as="geometry">
            <mxPoint x="224" y="880" as="targetPoint" />
            <mxPoint x="224" y="843" as="sourcePoint" />
            <Array as="points" />
          </mxGeometry>
        </mxCell>
        <mxCell id="ARopBcrdUj9PY51G81K_-19" value="Active" style="rounded=1;whiteSpace=wrap;html=1;arcSize=40;fontColor=#000000;fillColor=#ffffc0;strokeColor=#ff0000;" vertex="1" parent="5FGsqwhX5kQpAKNLu387-2">
          <mxGeometry x="38.75" y="740" width="45" height="20" as="geometry" />
        </mxCell>
        <mxCell id="ARopBcrdUj9PY51G81K_-78" value="Make payment?" style="rhombus;whiteSpace=wrap;html=1;fontColor=#000000;fillColor=#ffffc0;strokeColor=#ff0000;" vertex="1" parent="5FGsqwhX5kQpAKNLu387-2">
          <mxGeometry x="183.25" y="820" width="80" height="60" as="geometry" />
        </mxCell>
        <mxCell id="ARopBcrdUj9PY51G81K_-80" value="no" style="edgeStyle=orthogonalEdgeStyle;html=1;align=left;verticalAlign=top;endArrow=open;endSize=8;strokeColor=#ff0000;rounded=0;fontSize=12;curved=1;" edge="1" parent="5FGsqwhX5kQpAKNLu387-2">
          <mxGeometry x="-1" relative="1" as="geometry">
            <mxPoint x="223.07999999999998" y="940" as="targetPoint" />
            <mxPoint x="223.07999999999998" y="880" as="sourcePoint" />
            <Array as="points">
              <mxPoint x="223.22" y="910" />
              <mxPoint x="223.22" y="910" />
            </Array>
          </mxGeometry>
        </mxCell>
      </root>
    </mxGraphModel>
  </diagram>
</mxfile>
